<svg xmlns="http://www.w3.org/2000/svg" viewBox="0 0 142 137" fill="none" role="img" aria-label="Logo SEKETIKA">
<defs>
<linearGradient id="paint0_linear_0_1" x1="10.883" y1="0" x2="10.883" y2="7.81247" gradientUnits="userSpaceOnUse">
<stop stop-color="#D97706"/>
<stop offset="1" stop-color="#F59E0B"/>
</linearGradient>
<linearGradient id="paint1_linear_0_1" x1="10.8569" y1="0" x2="10.8569" y2="7.83126" gradientUnits="userSpaceOnUse">
<stop stop-color="#D97706"/>
<stop offset="1" stop-color="#F59E0B"/>
</linearGradient>
<linearGradient id="paint2_linear_0_1" x1="10.8489" y1="0" x2="10.8489" y2="7.837" gradientUnits="userSpaceOnUse">
<stop stop-color="#D97706"/>
<stop offset="1" stop-color="#F59E0B"/>
</linearGradient>
<linearGradient id="paint3_linear_0_1" x1="63.7502" y1="30" x2="63.7502" y2="60" gradientUnits="userSpaceOnUse">
<stop stop-color="#D97706"/>
<stop offset="1" stop-color="#F59E0B"/>
</linearGradient>
</defs>
<g id="Logo">
<g id="Group 96">
<ellipse id="Ellipse 48" cx="63.7503" cy="45.4099" rx="44.3773" ry="45.4099" fill="#1A4D2E"/>
<path id="Polygon 2" d="M76.2492 106.455C70.3156 115.396 57.1868 115.396 51.2532 106.455L29.1773 73.1919C22.5603 63.2215 29.709 49.8973 41.6753 49.8973L85.8272 49.8973C97.7935 49.8973 104.942 63.2215 98.3251 73.1919L76.2492 106.455Z" fill="#1A4D2E"/>
</g>
<rect id="Rectangle 148" width="21.7661" height="7.81247" rx="3.90624" transform="matrix(0.663953 -0.747774 0.745771 0.666202 107.92 16.8931)" fill="url(#paint0_linear_0_1)"/>
<rect id="Rectangle 149" width="21.7139" height="7.83126" rx="3.91563" transform="matrix(0.983566 -0.180548 0.177464 0.984127 113.898 27.5701)" fill="url(#paint1_linear_0_1)"/>
<rect id="Rectangle 150" width="21.6979" height="7.837" rx="3.9185" transform="matrix(0.918963 0.394344 -0.393503 0.919323 116.523 40.2947)" fill="url(#paint2_linear_0_1)"/>
<g id="Group 97">
<ellipse id="Ellipse 49" cx="64.2484" cy="44.5" rx="27.3929" ry="27.5" fill="#FDFBF7"/>
<ellipse id="Ellipse 50" cx="63.7502" cy="45" rx="14.9416" ry="15" fill="url(#paint3_linear_0_1)"/>
</g>
<rect id="Rectangle 151" y="95" width="128.498" height="6" rx="3" fill="#1A4D2E"/>
<ellipse id="Ellipse 51" cx="48.8087" cy="127" rx="9.96106" ry="10" fill="#1A4D2E"/>
<ellipse id="Ellipse 52" cx="96.6232" cy="127" rx="9.96106" ry="10" fill="#1A4D2E"/>
<rect id="Rectangle 152" x="53.79" y="124" width="34.8637" height="5" fill="#1A4D2E"/>
<ellipse id="Ellipse 53" cx="48.8096" cy="127" rx="4.98053" ry="5" fill="#FDFBF7"/>
<ellipse id="Ellipse 55" cx="96.6231" cy="127" rx="4.98053" ry="5" fill="#FDFBF7"/>
</g>
</svg>
